<svg width="24" height="24" viewBox="0 0 24 24" fill="none" xmlns="http://www.w3.org/2000/svg">
<circle cx="12" cy="12" r="10" fill="#6482FD"/>
<path d="M15.5 8H8.5C8.10218 8 7.72064 8.15804 7.43934 8.43934C7.15804 8.72064 7 9.10218 7 9.5V14.5C7 14.8978 7.15804 15.2794 7.43934 15.5607C7.72064 15.842 8.10218 16 8.5 16H15.5C15.8978 16 16.2794 15.842 16.5607 15.5607C16.842 15.2794 17 14.8978 17 14.5V9.5C17 9.10218 16.842 8.72064 16.5607 8.43934C16.2794 8.15804 15.8978 8 15.5 8V8ZM15.5 9L12.25 11.235C12.174 11.2789 12.0878 11.302 12 11.302C11.9122 11.302 11.826 11.2789 11.75 11.235L8.5 9H15.5Z" fill="#E5E5E5"/>
</svg>
