<svg width="24" height="24" viewBox="0 0 24 24" fill="none" xmlns="http://www.w3.org/2000/svg">
<circle cx="12" cy="12" r="10" fill="#6482FD"/>
<path d="M13.6812 10.15C13.3938 10.149 13.109 10.2047 12.8432 10.3139C12.5773 10.4231 12.3356 10.5836 12.1318 10.7864C11.9281 10.9891 11.7663 11.23 11.6557 11.4953C11.5451 11.7606 11.488 12.0451 11.4875 12.3325V14.5375C11.4875 14.627 11.5231 14.7129 11.5863 14.7762C11.6496 14.8394 11.7355 14.875 11.825 14.875H12.6125C12.702 14.875 12.7879 14.8394 12.8511 14.7762C12.9144 14.7129 12.95 14.627 12.95 14.5375V12.3325C12.9499 12.2303 12.9714 12.1292 13.013 12.0358C13.0546 11.9424 13.1154 11.8589 13.1915 11.7906C13.2676 11.7223 13.3572 11.6708 13.4545 11.6395C13.5518 11.6082 13.6546 11.5977 13.7562 11.6088C13.9385 11.6317 14.106 11.7208 14.227 11.859C14.3479 11.9972 14.4139 12.1751 14.4125 12.3588V14.5375C14.4125 14.627 14.4481 14.7129 14.5113 14.7762C14.5746 14.8394 14.6605 14.875 14.75 14.875H15.5375C15.627 14.875 15.7129 14.8394 15.7761 14.7762C15.8394 14.7129 15.875 14.627 15.875 14.5375V12.3325C15.8745 12.0451 15.8173 11.7606 15.7068 11.4953C15.5962 11.23 15.4344 10.9891 15.2307 10.7864C15.0269 10.5836 14.7852 10.4231 14.5193 10.3139C14.2535 10.2047 13.9687 10.149 13.6812 10.15Z" fill="#E5E5E5"/>
<path d="M10.475 10.4875H9.4625C9.2761 10.4875 9.125 10.6386 9.125 10.825V14.5375C9.125 14.7239 9.2761 14.875 9.4625 14.875H10.475C10.6614 14.875 10.8125 14.7239 10.8125 14.5375V10.825C10.8125 10.6386 10.6614 10.4875 10.475 10.4875Z" fill="#E5E5E5"/>
<path d="M9.96875 9.8125C10.4347 9.8125 10.8125 9.43474 10.8125 8.96875C10.8125 8.50276 10.4347 8.125 9.96875 8.125C9.50276 8.125 9.125 8.50276 9.125 8.96875C9.125 9.43474 9.50276 9.8125 9.96875 9.8125Z" fill="#E5E5E5"/>
</svg>
