<?xml version="1.0" encoding="UTF-8"?>
<svg width="82px" height="64px" viewBox="0 0 82 64" version="1.1" xmlns="http://www.w3.org/2000/svg" xmlns:xlink="http://www.w3.org/1999/xlink">
    <!-- Generator: Sketch 53.2 (72643) - https://sketchapp.com -->
    <title>Group</title>
    <desc>Created with Sketch.</desc>
    <g id="Page-1" stroke="none" stroke-width="1" fill="none" fill-rule="evenodd">
        <g id="menu" transform="translate(-9.000000, -1.000000)" fill="#000000" fill-rule="nonzero">
            <g id="Group" transform="translate(9.000000, 0.637820)">
                <path d="M5,0.36216 C2.2386,0.36216 -1.00000001e-07,2.60066 -1.00000001e-07,5.36216 C-1.00000001e-07,8.12365 2.2386,10.36216 5,10.36216 L77,10.36216 C79.7614,10.36216 82,8.12365 82,5.36216 C82,2.60066 79.7614,0.36216 77,0.36216 L5,0.36216 Z M5,27.36216 C2.2386,27.36216 -1.00000001e-07,29.60061 -1.00000001e-07,32.3621 C-1.00000001e-07,35.1236 2.2386,37.3621 5,37.3621 L77,37.3621 C79.7614,37.3621 82,35.1236 82,32.3621 C82,29.60061 79.7614,27.36216 77,27.36216 L5,27.36216 Z M5,54.3622 C2.2386,54.3622 -1.00000001e-07,56.6007 -1.00000001e-07,59.3622 C-1.00000001e-07,62.1237 2.2386,64.3622 5,64.3622 L77,64.3622 C79.7614,64.3622 82,62.1237 82,59.3622 C82,56.6007 79.7614,54.3622 77,54.3622 L5,54.3622 Z" id="Shape"></path>
            </g>
        </g>
    </g>
</svg>